<?xml version="1.0" encoding="utf-8"?>
<!-- Generator: Adobe Illustrator 16.0.0, SVG Export Plug-In . SVG Version: 6.00 Build 0)  -->
<!DOCTYPE svg PUBLIC "-//W3C//DTD SVG 1.1//EN" "http://www.w3.org/Graphics/SVG/1.1/DTD/svg11.dtd">
<svg version="1.1" id="Layer_1" xmlns="http://www.w3.org/2000/svg" xmlns:xlink="http://www.w3.org/1999/xlink" x="0px" y="0px"
	 width="251px" height="83px" viewBox="0 0 251 83" enable-background="new 0 0 251 83" xml:space="preserve">
<g>
	<path fill="#FFFFFF" d="M76.102,50.835l5.174-4.931c2.342,2.636,4.783,4.1,8.249,4.1c2.831,0,4.832-1.61,4.832-4.148v-0.098
		c0-2.782-2.489-4.344-6.687-4.344h-3.124l-1.171-4.784l8.151-8.2H78.103v-6.443h23.088v5.662l-8.64,8.25
		c4.637,0.78,9.176,3.221,9.176,9.567v0.097c0,6.443-4.686,11.179-12.3,11.179C83.277,56.741,79.031,54.3,76.102,50.835z"/>
	<path fill="#FFFFFF" d="M106.703,43.121v-0.097c0-8.737,5.71-13.521,11.909-13.521c3.954,0,6.395,1.807,8.152,3.906V20.523h7.418
		v35.631h-7.418v-3.758c-1.807,2.44-4.296,4.246-8.152,4.246C112.511,56.643,106.703,51.859,106.703,43.121z M126.861,43.121v-0.097
		c0-4.344-2.879-7.224-6.345-7.224s-6.395,2.831-6.395,7.224v0.097c0,4.346,2.929,7.225,6.395,7.225S126.861,47.467,126.861,43.121z
		"/>
	<path fill="#FFFFFF" d="M142.038,48.736V36.337h-3.124v-6.345h3.124v-6.688h7.419v6.688h6.15v6.345h-6.15v11.178
		c0,1.707,0.732,2.537,2.393,2.537c1.365,0,2.587-0.342,3.66-0.928v5.956c-1.562,0.928-3.368,1.513-5.856,1.513
		C145.113,56.594,142.038,54.788,142.038,48.736z"/>
	<path fill="#FFFFFF" d="M159.07,43.22v-0.099c0-7.516,6.053-13.618,14.205-13.618c8.103,0,14.105,6.004,14.105,13.521v0.097
		c0,7.519-6.052,13.62-14.203,13.62C165.075,56.741,159.07,50.736,159.07,43.22z M180.06,43.22v-0.099
		c0-3.854-2.782-7.222-6.882-7.222c-4.247,0-6.785,3.27-6.785,7.125v0.097c0,3.856,2.782,7.225,6.883,7.225
		C177.521,50.346,180.06,47.076,180.06,43.22z"/>
	<path fill="#FFFFFF" d="M193.967,48.736V36.337h-3.124v-6.345h3.124v-6.688h7.42v6.688h6.15v6.345h-6.15v11.178
		c0,1.707,0.731,2.537,2.391,2.537c1.368,0,2.589-0.342,3.662-0.928v5.956c-1.562,0.928-3.369,1.513-5.858,1.513
		C197.042,56.594,193.967,54.788,193.967,48.736z"/>
	<path fill="#FFFFFF" d="M211.438,48.637V48.54c0-5.711,4.345-8.347,10.544-8.347c2.636,0,4.539,0.44,6.394,1.074v-0.44
		c0-3.074-1.902-4.783-5.613-4.783c-2.83,0-4.832,0.537-7.224,1.416l-1.854-5.662c2.879-1.27,5.71-2.099,10.151-2.099
		c4.052,0,6.98,1.074,8.836,2.928c1.951,1.952,2.829,4.833,2.829,8.347v15.18h-7.175v-2.831c-1.806,2.001-4.294,3.319-7.906,3.319
		C215.49,56.643,211.438,53.812,211.438,48.637z M228.475,46.93v-1.318c-1.271-0.586-2.93-0.976-4.735-0.976
		c-3.172,0-5.125,1.269-5.125,3.612v0.097c0,2.001,1.66,3.174,4.052,3.174C226.131,51.519,228.475,49.613,228.475,46.93z"/>
	<path fill="#FFFFFF" d="M242.236,20.523h7.419v35.631h-7.419V20.523z"/>
</g>
<g>
	<g>
		<path fill="#FFFFFF" d="M49.423,16.069l-14.076-4.424c0,0-8.352,1.09-14.136,1.258C36.529,19.539,49.423,16.069,49.423,16.069z"/>
		<path fill="#FFFFFF" d="M65.266,18.072c-1.438-0.436-4.342-1.3-7.582-2.182c-22.697,9.741-45.332-4.832-45.332-4.832l-8.419,0.6
			l30.454,16.489L65.266,18.072z"/>
		<path fill="#FFFFFF" d="M21.631,47.4c-1.586-7.45-5.172-12.375-8.855-15.594c-0.866-0.756-1.737-1.419-2.589-1.998
			c-1.242-0.844-2.442-1.51-3.524-2.03c0.44,3.933,0.882,7.867,1.323,11.8c0.348,3.101,0.695,6.201,1.042,9.302
			c1.921,1.984,3.843,3.969,5.765,5.954c2.43,2.511,4.862,5.021,7.292,7.532c0.06-0.513,0.113-1.02,0.159-1.518
			C22.725,55.641,22.438,51.193,21.631,47.4z"/>
		<path fill="#FFFFFF" d="M33.23,29.937L1.738,12.884c0.382,3.507,0.766,7.018,1.148,10.529c5.064,1.386,26.81,9.415,21.1,44.073
			c2.129,2.262,4.258,4.524,6.387,6.788L33.23,29.937z"/>
		<path fill="#FFFFFF" d="M41.532,55.139c0.043-0.146,0.089-0.288,0.133-0.434c6.021-21.593,18.204-24.98,21.968-25.51
			c0.103-0.037,0.203-0.076,0.306-0.112c0.953-3.091,1.905-6.185,2.857-9.276L35.35,30.067l-2.86,44.377
			c2.215-2.181,4.431-4.362,6.647-6.543c0.452-3.787,1.058-7.206,1.783-10.29C41.096,56.771,41.293,55.943,41.532,55.139z"/>
		<path fill="#FFFFFF" d="M42.228,62.563c3.652-3.416,7.306-6.831,10.958-10.247c0.554-0.519,1.109-1.038,1.663-1.556
			c0.211-0.671,0.421-1.343,0.633-2.013c1.715-5.451,3.428-10.903,5.142-16.354C54.639,35.282,46.138,42.832,42.228,62.563z"/>
	</g>
</g>
</svg>
